.
..............................Site Info...........................

 -   http://www.scenetime.com  *_*   

SceneTime is going to Close sign up on march/1, hurry up! get in before the doors are closed.

     We care to share . Join us on  http://www.scenetime.com 

    Be the first to get new release at  http://www.scenetime.com

        Seed back for speed


...................................NFO:.................................................[img]http://img696.imageshack.us/img696/8928/preacher.jpg[/img]


[color=blue][size=5][b]Machine.Gun.Preacher.2011.DVDRip.XVID.AC3.HQ.Hive-CM8[/b][/size][/color]


[b] Thx Hive

CM8 Doing It Right The First Time :D


Source: DVD-9
thx ripperschoice

Encode:
Une already made us a nice forward rip, wanna get you a tweaked version too, right from the source.

DVD had good quality, a bit of noise in the video but very high bitrate.
added brightness, sharpness and denoise and corrected rgb since they were slightly off.
got very nice
enjoy

Video: 720x304 @bitrate 1700 2pass
Audio: English AC3 5.1 @448
Sample: Yes, included[/b]
 
http://www.imdb.com/title/tt1586752/


General
Complete name                  : Machine.Gun.Preacher.2011.DVDRip.XVID.AC3.HQ.Hive-CM8.avi
Format                         : AVI
Format/Info                    : Audio Video Interleave
File size                      : 1.86 GiB
Duration                       : 2h 3mn
Overall bit rate               : 2 157 Kbps
Writing application            : Nandub v1.0rc2
Writing library                : Nandub build 1853/release

Video
ID                             : 0
Format                         : MPEG-4 Visual
Format profile                 : Advanced Simple@L5
Format settings, BVOP          : 2
Format settings, QPel          : Yes
Format settings, GMC           : No warppoints
Format settings, Matrix        : Default (H.263)
Muxing mode                    : Packed bitstream
Codec ID                       : XVID
Codec ID/Hint                  : XviD
Duration                       : 2h 3mn
Bit rate                       : 1 699 Kbps
Width                          : 720 pixels
Height                         : 304 pixels
Display aspect ratio           : 2.35:1
Frame rate                     : 25.000 fps
Color space                    : YUV
Chroma subsampling             : 4:2:0
Bit depth                      : 8 bits
Scan type                      : Progressive
Compression mode               : Lossy
Bits/(Pixel*Frame)             : 0.311
Stream size                    : 1.47 GiB (79%)
Writing library                : XviD 1.2.1 (UTC 2008-12-04)

Audio
ID                             : 1
Format                         : AC-3
Format/Info                    : Audio Coding 3
Mode extension                 : CM (complete main)
Codec ID                       : 2000
Duration                       : 2h 3mn
Bit rate mode                  : Constant
Bit rate                       : 448 Kbps
Channel(s)                     : 6 channels
Channel positions              : Front: L C R, Side: L R, LFE
Sampling rate                  : 48.0 KHz
Bit depth                      : 16 bits
Compression mode               : Lossy
Stream size                    : 396 MiB (21%)
Alignment                      : Split accross interleaves
Interleave, duration           : 40 ms (1.00 video frame)
Interleave, preload duration   : 500 ms


Plot:
The story of Sam Childers, a former drug-dealing biker tough guy who found
God and became a crusader for hundreds of Sudanese children who've been
forced to become soldiers.


Cast:
Gerard Butler       ...    Sam Childers
Michelle Monaghan   ...    Lynn Childers
Kathy Baker         ...    Daisy
Michael Shannon     ...    Donnie


[img]http://img268.imageshack.us/img268/2529/mpmmpp.png[/img]
[img]http://img194.imageshack.us/img194/6136/mpmmmmppmmpmppmpmppp.png[/img]
[img]http://img11.imageshack.us/img11/9444/mpmmmpmmpmppmpmppp.png[/img]
[img]http://img59.imageshack.us/img59/2414/mpmmmmpmppmpmppp.png[/img]
[img]http://img192.imageshack.us/img192/6894/mpmmmmppmpmppp.png[/img]
[img]http://img813.imageshack.us/img813/1382/mpmmmpmpmppp.png[/img]
[img]http://img841.imageshack.us/img841/112/mpmmmpmppp.png[/img]
[img]http://img441.imageshack.us/img441/7894/mpmmmppp.png[/img]
[img]http://img31.imageshack.us/img31/1066/mpmpq.png[/img]
[img]http://img856.imageshack.us/img856/6629/40884450.png[/img]



Greetz

ViSiON,SPK,SceneLovers,PRESTiGE,SANTi,3LT0N,YanKeeS,COPYxRIGHT,T0XiC
D2U,LKRG,Feel-Free,FLAWL3SS,WBZ,BHRG,26K,NOVA,TED,MAGNET,THC,jtr
Unevano,Rapeseed,SAFC,goldadvance,KaN1vE,Pinnz,Wayne
Mr Hive,and most P2P groups
Great Work Guys :D

LOOKING FOR ANYTHING YOU WANT TO LOOK AND SOUND BETTER

CM8@hushmail.com